# xmcd
#
# Track frame offsets: 
#        150
#        12510
#        23858
#        36583
#        47459
#        60114
#        72858
#        85081
#        101113
#        112153
#        122348
#        134749
#
# Disc length: 1946 seconds
#
# Revision: 0
# Processed by: cddbd v1.5.2PL0 Copyright (c) Steve Scherf et al.
# Submitted via: ExactAudioCopyFreeDBPlugin 1.0
#
DISCID=a107980c
DTITLE=Norma Jean - Norma Jean's Cowboy Church Gospel
DYEAR=2012
DGENRE=Country
TTITLE0=Old Country Church
TTITLE1=What A Day That Will Be
TTITLE2=A  Beautiful Life
TTITLE3=Standing On The Rock Where Moses Stood
TTITLE4=Gone Home
TTITLE5=God On The Mountain
TTITLE6=Feeling Mighty Fine
TTITLE7=I Believe In You
TTITLE8=When The Saints Go Marching In
TTITLE9=Jesus Is A Cowboy
TTITLE10=Heavenly
TTITLE11=Thank You For Loving Me
EXTD=
EXTT0=
EXTT1=
EXTT2=
EXTT3=
EXTT4=
EXTT5=
EXTT6=
EXTT7=
EXTT8=
EXTT9=
EXTT10=
EXTT11=
PLAYORDER=
